<svg viewBox="0 0 24 24" xmlns="http://www.w3.org/2000/svg">
<path stroke="none" d="m0 0h24v24h-24z" fill="none"/>
<path d="m7.172 2.757 3.242 3.243h3.171l3.243-3.242a1 1 0 0 1 1.415 1.415l-1.829 1.827h2.086a3.5 3.5 0 0 1 3.5 3.5v8a3.5 3.5 0 0 1 -3.5 3.5h-13a3.5 3.5 0 0 1 -3.5-3.5v-8a3.5 3.5 0 0 1 3.5-3.5h2.085l-1.828-1.829a1 1 0 0 1 1.415-1.415zm11.328 5.243h-13a1.5 1.5 0 0 0 -1.493 1.356l-.007.144v8a1.5 1.5 0 0 0 1.356 1.493l.144.007h13a1.5 1.5 0 0 0 1.493-1.356l.007-.144v-8a1.5 1.5 0 0 0 -1.5-1.5zm-10.5 3a1 1 0 0 1 1 1v2a1 1 0 0 1 -2 0v-2a1 1 0 0 1 1-1zm8 0a1 1 0 0 1 1 1v2a1 1 0 0 1 -2 0v-2a1 1 0 0 1 1-1z"/></svg>
